<?xml version="1.0" encoding="UTF-8"?>
<svg xmlns="http://www.w3.org/2000/svg" viewBox="0 0 1200 630" width="1200" height="630">
  <defs>
    <linearGradient id="g62261" x1="63.78186779084995%" y1="1.9369152030840553%" x2="36.21813220915005%" y2="98.06308479691594%">
      <stop offset="0%" stop-color="#D97706"/>
      <stop offset="100%" stop-color="#B45309"/>
    </linearGradient>
  </defs>
  <rect width="1200" height="630" fill="url(#g62261)"/>
  <circle cx="338.65404021926224" cy="263.6818272806704" r="82.0437617530115" fill="none" stroke="rgba(255,255,255,0.12)" stroke-width="2"/><line x1="338.65404021926224" y1="263.6818272806704" x2="420.69780197227374" y2="263.6818272806704" stroke="rgba(255,255,255,0.15)" stroke-width="2"/><line x1="338.65404021926224" y1="263.6818272806704" x2="373.462260393027" y2="298.49004745443517" stroke="rgba(255,255,255,0.15)" stroke-width="1"/><line x1="338.65404021926224" y1="263.6818272806704" x2="338.65404021926224" y2="345.7255890336819" stroke="rgba(255,255,255,0.15)" stroke-width="2"/><line x1="338.65404021926224" y1="263.6818272806704" x2="303.8458200454975" y2="298.49004745443517" stroke="rgba(255,255,255,0.15)" stroke-width="1"/><line x1="338.65404021926224" y1="263.6818272806704" x2="256.61027846625075" y2="263.6818272806704" stroke="rgba(255,255,255,0.15)" stroke-width="2"/><line x1="338.65404021926224" y1="263.6818272806704" x2="303.8458200454975" y2="228.87360710690564" stroke="rgba(255,255,255,0.15)" stroke-width="1"/><line x1="338.65404021926224" y1="263.6818272806704" x2="338.65404021926224" y2="181.6380655276589" stroke="rgba(255,255,255,0.15)" stroke-width="2"/><line x1="338.65404021926224" y1="263.6818272806704" x2="373.462260393027" y2="228.87360710690564" stroke="rgba(255,255,255,0.15)" stroke-width="1"/><path d="M 600 181.56841502524912 L 600 161.51242020398232 L 620 165.31156848174822 L 640 172.2337605283717 L 660 210.19008256197145 L 680 215.21931070202797 L 700 167.1880817439705 L 720 203.82573961408164 L 740 207.56524343170992 L 760 210.993265680108 L 780 207.70957608759477 L 800 190.35420373733513 L 820 196.17954191245238 L 840 150.1113294878941 L 860 174.97399832877989 L 880 158.7199969262904 L 900 188.88540593135255 L 920 183.94711901583958 L 940 158.03645469461506 L 960 158.07490346588327 L 980 206.06439827787923 L 1000 205.19390593265427 L 1020 149.68085986729045 L 1040 214.06858973228998 L 1060 200.34607695384636 L 1080 182.51574239502074 L 1100 187.95211446157745" fill="none" stroke="rgba(255,255,255,0.10508988486137241)" stroke-width="1.5"/><path d="M 600 239.58771702833474 L 600 235.19202215334835 L 620 250.8549418985005 L 640 254.31814331952322 L 660 269.1425397280856 L 680 218.81664221325534 L 700 263.9355994719057 L 720 268.5431346170034 L 740 220.39401273643554 L 760 236.21846971816413 L 780 210.7930968477214 L 800 235.55486759964194 L 820 219.63230356148426 L 840 243.96317499839395 L 860 210.29889082933508 L 880 214.40205341855113 L 900 253.84310353918988 L 920 257.1133499239987 L 940 267.2689786834469 L 960 234.01469914116768 L 980 262.5885030095418 L 1000 257.857069214428 L 1020 247.7530763018061 L 1040 261.4901566464213 L 1060 240.0832738866774 L 1080 260.83394719449444 L 1100 239.44506042478685" fill="none" stroke="rgba(255,255,255,0.09834658982232213)" stroke-width="1.5"/><path d="M 600 334.1214649938047 L 600 319.043240520709 L 620 318.45855197075457 L 640 309.3401386793562 L 660 322.0475854408832 L 680 317.7906632308461 L 700 317.2352666958609 L 720 317.88960577869483 L 740 325.5714814649734 L 760 301.20912869674424 L 780 361.725241475024 L 800 363.84977619733337 L 820 324.16115113396796 L 840 318.8514128541359 L 860 347.62015570053853 L 880 353.0289844739809 L 900 341.88706607389634 L 920 329.2958619567403 L 940 331.9352684031288 L 960 358.57327969605944 L 980 312.0016546430195 L 1000 314.5199688921571 L 1020 319.8396700038044 L 1040 327.80044783226975 L 1060 324.7782464362409 L 1080 345.488225245935 L 1100 328.66315955561464" fill="none" stroke="rgba(255,255,255,0.08205957622267306)" stroke-width="1.5"/><path d="M 600 409.71711323596537 L 600 411.43989467958943 L 620 426.5396049140254 L 640 380.29504578917584 L 660 386.1095397966953 L 680 399.9890282511143 L 700 432.2582579764751 L 720 427.11361674158843 L 740 429.2144264736896 L 760 422.98887393936775 L 780 427.4941963733964 L 800 434.84321186081075 L 820 412.31895145923085 L 840 408.73224833307324 L 860 385.5027948521829 L 880 386.8072720013817 L 900 393.81030403475097 L 920 381.3159959350279 L 940 397.02329717174933 L 960 376.55690557375044 L 980 384.226884660705 L 1000 439.57215587232986 L 1020 430.8063986276935 L 1040 399.5676019463901 L 1060 426.7706709773415 L 1080 418.0563366140624 L 1100 411.859311902172" fill="none" stroke="rgba(255,255,255,0.11677997928578407)" stroke-width="1.5"/><line x1="150" y1="530.1085006864741" x2="1050" y2="530.1085006864741" stroke="rgba(255,255,255,0.12)" stroke-width="2"/><circle cx="207.42735151201487" cy="530.1085006864741" r="5" fill="rgba(255,255,255,0.2)"/><line x1="207.42735151201487" y1="515.1085006864741" x2="207.42735151201487" y2="545.1085006864741" stroke="rgba(255,255,255,0.15)" stroke-width="2"/><circle cx="382.88617910817266" cy="530.1085006864741" r="5" fill="rgba(255,255,255,0.2)"/><line x1="382.88617910817266" y1="515.1085006864741" x2="382.88617910817266" y2="545.1085006864741" stroke="rgba(255,255,255,0.15)" stroke-width="2"/><circle cx="520.6115829758346" cy="530.1085006864741" r="5" fill="rgba(255,255,255,0.2)"/><line x1="520.6115829758346" y1="515.1085006864741" x2="520.6115829758346" y2="545.1085006864741" stroke="rgba(255,255,255,0.15)" stroke-width="2"/><circle cx="660.9412728063762" cy="530.1085006864741" r="5" fill="rgba(255,255,255,0.2)"/><line x1="660.9412728063762" y1="515.1085006864741" x2="660.9412728063762" y2="545.1085006864741" stroke="rgba(255,255,255,0.15)" stroke-width="2"/><circle cx="839.8334211762995" cy="530.1085006864741" r="5" fill="rgba(255,255,255,0.2)"/><line x1="839.8334211762995" y1="515.1085006864741" x2="839.8334211762995" y2="545.1085006864741" stroke="rgba(255,255,255,0.15)" stroke-width="2"/><circle cx="963.3633756171912" cy="530.1085006864741" r="5" fill="rgba(255,255,255,0.2)"/><line x1="963.3633756171912" y1="515.1085006864741" x2="963.3633756171912" y2="545.1085006864741" stroke="rgba(255,255,255,0.15)" stroke-width="2"/>
  <circle cx="427.4900497868657" cy="298.7653361214325" r="1.0399800017476082" fill="rgba(255,255,255,0.05917713747592643)"/><circle cx="16.25864300876856" cy="627.2543867281638" r="1.3286742540076375" fill="rgba(255,255,255,0.058212720516603436)"/><circle cx="893.6646211892366" cy="148.99459243984893" r="2.926133363507688" fill="rgba(255,255,255,0.05047481146873906)"/><circle cx="1114.6161206066608" cy="592.4003131804056" r="2.5478859255090356" fill="rgba(255,255,255,0.06635256744455546)"/><circle cx="67.59738810360432" cy="526.8211526912637" r="1.8698578551411629" fill="rgba(255,255,255,0.06700192621909082)"/><circle cx="295.0898758135736" cy="468.98662415798753" r="1.4915249808691442" fill="rgba(255,255,255,0.0387625426473096)"/><circle cx="717.8432067856193" cy="245.27075896505266" r="1.827225734014064" fill="rgba(255,255,255,0.03745542125077918)"/><circle cx="30.432594381272793" cy="211.55462897848338" r="2.48351440532133" fill="rgba(255,255,255,0.06204400414833799)"/><circle cx="926.8952689133584" cy="221.1039349786006" r="1.6445442722178996" fill="rgba(255,255,255,0.0715103511302732)"/><circle cx="273.2024062424898" cy="479.33117531239986" r="2.0553045058622956" fill="rgba(255,255,255,0.0732742776349187)"/><circle cx="290.95360888168216" cy="285.6973996432498" r="1.0977720944210887" fill="rgba(255,255,255,0.07045682416763158)"/><circle cx="117.96641573309898" cy="477.1469266782515" r="1.2731774388812482" fill="rgba(255,255,255,0.03217213206924498)"/><circle cx="701.4604199677706" cy="55.16327973688021" r="2.4985124468803406" fill="rgba(255,255,255,0.049487413077149545)"/><circle cx="193.47287937998772" cy="101.17536208592355" r="2.1961261397227645" fill="rgba(255,255,255,0.056629704656079416)"/><circle cx="441.68967828154564" cy="568.9418511861004" r="2.0674925399944186" fill="rgba(255,255,255,0.04441071969456971)"/><circle cx="188.21719139814377" cy="253.64052011165768" r="1.7020351863466203" fill="rgba(255,255,255,0.07393941318849101)"/><circle cx="1154.5227301307023" cy="470.8748626546003" r="2.611702867783606" fill="rgba(255,255,255,0.06026296842144802)"/><circle cx="962.2332324273884" cy="213.82619774434716" r="1.9433402987197042" fill="rgba(255,255,255,0.044692855498287824)"/><circle cx="629.0385114960372" cy="447.35004832036793" r="2.9777123415842652" fill="rgba(255,255,255,0.07587191262980923)"/><circle cx="834.0251407586038" cy="34.02990229893476" r="1.2352581191807985" fill="rgba(255,255,255,0.03498016994679347)"/>
  <text x="600" y="335" font-family="system-ui, -apple-system, 'Segoe UI', sans-serif" font-size="58" font-weight="700" fill="rgba(0,0,0,0.15)" text-anchor="middle" letter-spacing="1">AP United States History</text>
  <text x="600" y="332" font-family="system-ui, -apple-system, 'Segoe UI', sans-serif" font-size="58" font-weight="700" fill="white" text-anchor="middle" letter-spacing="1">AP United States History</text>
  <g transform="translate(1140, 575)">
    <rect x="0" y="0" width="40" height="40" rx="8" fill="rgba(255,255,255,0.15)"/>
    <text x="20" y="29" font-family="sans-serif" font-weight="bold" font-size="24" fill="rgba(255,255,255,0.6)" text-anchor="middle">K</text>
  </g>
</svg>